<?xml version="1.0" encoding="utf-8"?>
<!-- Generator: Adobe Illustrator 19.1.0, SVG Export Plug-In . SVG Version: 6.00 Build 0)  -->
<!DOCTYPE svg PUBLIC "-//W3C//DTD SVG 1.1//EN" "http://www.w3.org/Graphics/SVG/1.1/DTD/svg11.dtd">
<svg version="1.1" id="Layer_1" xmlns="http://www.w3.org/2000/svg" xmlns:xlink="http://www.w3.org/1999/xlink" x="0px" y="0px"
	 viewBox="0 0 52.7 61.3" style="enable-background:new 0 0 52.7 61.3;" xml:space="preserve">
<style type="text/css">
	.st0{fill-rule:evenodd;clip-rule:evenodd;}
</style>
<path class="st0" d="M16.2,61.3c0,0,0.3-9.3,16-14.1s20.7-18.4,20.4-24l-0.5,0.2c0,0-32.5,10-36.4,29.8c0,0-5.9-16.1-14.2-8.9
	c0,0-1.5,1.9-1.5,2.9l0.2,0.3c0,0,11.7-3.3,15,13.5L16.2,61.3z"/>
<path class="st0" d="M15.6,50.9c0,0,1.1-7,4.7-14.3S30.5,6.5,14.9,0c0,0,0,2-1.6,5.1c0,0-10.1,15.3-1.4,31.9c0,0,2.9,4.7,3.1,12.5
	L15.6,50.9z"/>
</svg>
