<?xml version="1.0" encoding="utf-8"?>
<!-- Generator: Adobe Illustrator 19.1.0, SVG Export Plug-In . SVG Version: 6.00 Build 0)  -->
<!DOCTYPE svg PUBLIC "-//W3C//DTD SVG 1.1//EN" "http://www.w3.org/Graphics/SVG/1.1/DTD/svg11.dtd">
<svg version="1.1" id="Layer_1" xmlns="http://www.w3.org/2000/svg" xmlns:xlink="http://www.w3.org/1999/xlink" x="0px" y="0px"
	 viewBox="0 0 100 100" style="enable-background:new 0 0 100 100;" xml:space="preserve">
<style type="text/css">
	.st0{fill:url(#SVGID_1_);}
</style>
<linearGradient id="SVGID_1_" gradientUnits="userSpaceOnUse" x1="39.6021" y1="98.9174" x2="60.3976" y2="1.0825">
	<stop  offset="0" style="stop-color:#91BF11"/>
	<stop  offset="0.286" style="stop-color:#50A111"/>
	<stop  offset="0.2987" style="stop-color:#4DA011"/>
	<stop  offset="0.3498" style="stop-color:#499C11"/>
	<stop  offset="0.6469" style="stop-color:#348511"/>
	<stop  offset="0.7252" style="stop-color:#317A0F"/>
	<stop  offset="0.8618" style="stop-color:#285D08"/>
	<stop  offset="1" style="stop-color:#1D3A00"/>
</linearGradient>
<path class="st0" d="M50,0C22.4,0,0,22.4,0,50s22.4,50,50,50c0,0,0,0,0,0c-3.3-16.8-15-13.5-15-13.5l-0.2-0.3c0-1,1.5-2.9,1.5-2.9
	c8.4-7.2,14.2,8.9,14.2,8.9c3.9-19.8,36.4-29.8,36.4-29.8l0.5-0.2c0.3,5.5-4.7,19.1-20.4,24c-13.8,4.3-15.7,12-16,13.7
	C78.2,99.4,100,77.2,100,50C100,22.4,77.6,0,50,0z M55.1,75.6c-3.7,7.3-4.7,14.3-4.7,14.3l-0.6-1.4C49.6,80.7,46.7,76,46.7,76
	c-8.7-16.5,1.4-31.9,1.4-31.9c1.7-3.1,1.6-5.1,1.6-5.1C65.3,45.5,58.8,68.3,55.1,75.6z"/>
</svg>
