<?xml version="1.0" encoding="UTF-8"?>
<svg version="1.1" xmlns="http://www.w3.org/2000/svg" x="0px" y="0px" viewBox="0 0 98.7 98.8" enable-background="new 0 0 98.7 98.8">
    <path fill="#47B649" d="M49.4,0C22.1,0,0,22.1,0,49.4c0,27.3,22.1,49.4,49.4,49.4c-3.3-16.6-14.8-13.3-14.8-13.3
	l-0.3-0.3c0-1,1.5-2.9,1.5-2.9c8.3-7.1,14,8.8,14,8.8c3.9-19.6,36-29.5,36-29.5l0.5-0.2c0.3,5.4-4.6,18.9-20.2,23.7
	c-13.6,4.2-15.5,11.9-15.8,13.6c27.3-0.5,48.9-23.1,48.4-50.4C98.2,21.5,76.3,0,49.4,0z M54.5,74.7L54.5,74.7
	c-2.3,4.5-3.8,9.2-4.7,14.1l-0.6-1.4c-0.1-4.3-1.1-8.5-3-12.4c-8.6-16.3,1.4-31.5,1.4-31.5c0.9-1.5,1.5-3.2,1.6-5
	C64.5,45,58.1,67.5,54.5,74.7z"/>
</svg>
