<svg id="Layer_1" data-name="Layer 1" xmlns="http://www.w3.org/2000/svg"
	 viewBox="0 0 98.65 98.85">
	<defs>
		<style>.cls-1{fill:#47b649;}</style>
	</defs>
	<title>Sprout Fields</title>
	<path class="cls-1"
		  d="M50.1.58a49.42,49.42,0,1,0,0,98.84h0c-3.26-16.6-14.83-13.34-14.83-13.34l-.3-.3c0-1,1.49-2.86,1.49-2.86,8.3-7.12,14,8.79,14,8.79,3.86-19.57,36-29.45,36-29.45l.5-.2c.3,5.44-4.65,18.88-20.17,23.72C53.16,90,51.28,97.64,51,99.33A49.38,49.38,0,0,0,50.1.58Zm5,74.73a50.84,50.84,0,0,0-4.65,14.13l-.59-1.38A28.19,28.19,0,0,0,46.84,75.7c-8.6-16.31,1.38-31.53,1.38-31.53a10.56,10.56,0,0,0,1.58-5C65.22,45.55,58.8,68.09,55.14,75.31Z"
		  transform="translate(-0.67 -0.58)"/>
</svg>